<svg id="Layer_1" xmlns="http://www.w3.org/2000/svg" xmlns:xlink="http://www.w3.org/1999/xlink" viewBox="0 0 307.3 69.1"><style>.st1{fill:#fff}</style><defs><path id="SVGID_1_" d="M6.7 2.3H271v50.8H6.7z"/></defs><clipPath id="SVGID_2_"><use xlink:href="#SVGID_1_" overflow="visible"/></clipPath><g clip-path="url(#SVGID_2_)"><path class="st1" d="M27.1 46.7C26 48.2 24.6 49.3 23 50s-3.4 1.1-5.4 1.1c-1.2 0-2.4-.2-3.4-.5s-1.9-.9-2.7-1.6c-1.6-1.4-2.4-3.2-2.4-5.4 0-2.1.7-3.8 2-5.1S14.7 36 18 35l3.7-1c1.7-.4 2.9-.8 3.4-1.2.7-.4 1.2-1 1.5-1.6s.5-1.3.5-2.2c0-1.4-.5-2.5-1.6-3.3-1-.8-2.5-1.2-4.5-1.2-1.2 0-2.3.1-3.2.4-.9.3-1.7.7-2.4 1.3h.2c1.1 0 2 .3 2.7.8.7.6 1 1.3 1 2.4s-.4 2-1.1 2.7c-.8.7-1.7 1-3 1-1.4 0-2.5-.4-3.4-1.3-.9-.9-1.3-2-1.3-3.3 0-2.2 1-3.9 3.1-5.3 1-.7 2.2-1.2 3.6-1.5s2.9-.5 4.7-.5c1.9 0 3.7.2 5.2.5s2.8.8 3.8 1.5c1.1.7 1.9 1.7 2.3 2.8.5 1.2.7 3.1.7 5.7V44c0 .7.1 1.2.3 1.5s.6.5 1 .5c.7 0 1.1-.4 1.4-1.1.2-.8.4-2.6.4-5.3h3.6V41c0 3.6-.6 6.1-1.7 7.7-1.1 1.6-3 2.4-5.5 2.4-1.7 0-3.1-.3-4.1-1.1-1-.7-1.8-1.8-2.2-3.3zm-.2-11.1L23.6 37c-4.3 1.9-6.5 3.8-6.5 5.8 0 1 .3 1.9.9 2.5s1.5.9 2.7.9c1.9 0 3.4-.6 4.5-1.9 1.1-1.3 1.7-3.1 1.7-5.3v-3.4zm37.3-17.4c0-1.5-.2-2.4-.7-2.9-.5-.4-1.3-.6-2.7-.6h-2.5v-3.9h12.9v31.8c0 1.5.2 2.4.7 2.9.5.4 1.4.6 2.7.6h1.7V50H64.2v-4.8c-.9 1.9-2.2 3.3-3.7 4.2s-3.5 1.4-5.7 1.4c-3.7 0-6.6-1.3-8.7-3.9C44 44.3 43 40.7 43 36s1-8.3 3.1-10.9 5-3.9 8.7-3.9c2.2 0 4.1.5 5.7 1.4 1.5.9 2.8 2.4 3.8 4.3l-.1-8.7zM50.8 36.3c0 3.3.5 5.8 1.6 7.4 1.1 1.6 2.8 2.5 5 2.5 2.1 0 3.7-.9 4.9-2.6 1.2-1.7 1.8-4.2 1.8-7.2 0-3.1-.6-5.5-1.8-7.2s-2.8-2.6-4.9-2.6c-2.3 0-3.9.8-5 2.4-1 1.5-1.6 3.9-1.6 7.3zm50.8 3.8h4.9c-.4 3.4-1.8 6-4.1 8S97.1 51 93.6 51c-4.4 0-8-1.3-10.6-4-2.7-2.7-4-6.3-4-10.8s1.3-8 4-10.8c2.7-2.7 6.2-4.1 10.6-4.1 4.2 0 7.5 1.3 9.7 4 2.2 2.6 3.4 6.5 3.4 11.5H87c0 1.5.2 2.9.5 4 .3 1.2.8 2.2 1.5 3.1 1.2 1.6 2.9 2.5 5.1 2.5s3.9-.5 5.1-1.4c1.1-1 1.9-2.6 2.4-4.9zM99 32.6c0-1.2-.1-2.3-.4-3.2-.3-1-.7-1.8-1.1-2.4-.9-1.2-2.1-1.8-3.8-1.8-1.7 0-3.1.6-4.2 1.9-1.1 1.2-1.8 3.1-2.2 5.6l11.7-.1zm11.2 3.6c0-4.5 1.4-8.1 4.3-10.8 2.8-2.7 6.6-4.1 11.3-4.1 4.7 0 8.5 1.4 11.4 4.1 2.8 2.7 4.3 6.3 4.3 10.8 0 4.4-1.4 8-4.3 10.7-2.9 2.7-6.6 4.1-11.3 4.1s-8.5-1.3-11.3-4c-3-2.7-4.4-6.3-4.4-10.8zm8 0s.6 6.2 1.9 8 3.2 2.7 5.7 2.7 4.4-.9 5.7-2.7 1.9-4.4 1.9-8-.6-6.2-1.9-8c-1.3-1.8-3.2-2.7-5.7-2.7s-4.4.9-5.7 2.7c-1.3 1.8-1.9 8-1.9 8zM173.3 50l-6.6-20.3c-.5-1.4-.9-2.4-1.4-2.8s-1.2-.6-2-.6H162v-3.9h14.5v3.9h-1.4c-.7 0-1.2.1-1.5.3-.3.2-.5.6-.5 1.1l.1.9.4 1.5 4 13.6 4.9-13.8.3-1 .1-.9c0-.6-.2-1.1-.6-1.3-.4-.3-1.1-.4-2-.4h-1.1v-3.9h14.2v3.9h-1.7c-.6 0-1.1.1-1.4.3-.3.2-.4.6-.4 1l.1.9c0 .2 0 .3.1.4 0 .1.1.3.2.6l4.7 14.4 4.3-13.3.4-1.6c.1-.5.2-1 .2-1.3 0-.4-.2-.8-.5-1.1-.4-.3-.8-.4-1.3-.4h-1.5v-3.9h12.2v3.9h-1.3c-.7 0-1.3.3-1.8.8s-1 1.6-1.5 3l-6.7 20h-6.9l-5-15.5-5.2 15.5h-7.1zm60.7-9.9h4.9c-.4 3.4-1.8 6-4.1 8S229.5 51 226 51c-4.4 0-8-1.3-10.6-4-2.7-2.7-4-6.3-4-10.8s1.3-8 4-10.8c2.7-2.7 6.2-4.1 10.6-4.1 4.2 0 7.5 1.3 9.7 4 2.2 2.6 3.4 6.5 3.4 11.5h-19.7c0 1.5.2 2.9.5 4 .3 1.2.8 2.2 1.5 3.1 1.2 1.6 2.9 2.5 5.1 2.5 2.2 0 3.9-.5 5.1-1.4 1.1-1 1.9-2.6 2.4-4.9zm-2.7-7.5c0-1.2-.1-2.3-.4-3.2-.3-1-.7-1.8-1.1-2.4-.9-1.2-2.1-1.8-3.8-1.8s-3.1.6-4.2 1.9c-1.1 1.2-1.8 3.1-2.2 5.6l11.7-.1zm20.4 13.9l-2.3 3.9h-3.9V18.2c0-1.5-.2-2.4-.7-2.9-.4-.4-1.3-.6-2.7-.6H241v-3.9h11.7v16c1.1-1.8 2.4-3.2 3.9-4.1.8-.4 1.6-.7 2.6-1 .9-.2 2-.3 3-.3 3.6 0 6.5 1.3 8.6 4 2.1 2.6 3.2 6.3 3.2 10.8 0 4.6-1.1 8.2-3.2 10.9-2.2 2.7-5.1 4-8.7 4-2.1 0-4-.4-5.6-1.1-1.8-.8-3.4-2-4.8-3.5zM266 36.3c0-3.3-.6-5.8-1.7-7.4s-2.8-2.4-5-2.4c-2.1 0-3.7.9-4.9 2.6s-1.8 4.2-1.8 7.2c0 3.1.6 5.5 1.8 7.3s2.8 2.6 4.9 2.6c2.2 0 3.9-.8 5-2.5 1.1-1.6 1.7-4.1 1.7-7.4z"/></g><path d="M271.8 3.1h10.3v54.4h-10.3z" fill="#f05f22"/><path class="st1" d="M300.8 60.6c0 3.4-2.7 6.1-6.2 6.1s-6.3-2.7-6.3-6.1c0-3.4 2.8-6.1 6.3-6.1s6.2 2.7 6.2 6.1zm-10.9 0c0 2.7 2 4.8 4.7 4.8s4.6-2.1 4.6-4.8-2-4.9-4.7-4.9-4.6 2.2-4.6 4.9zm3.7 3.2h-1.4v-6.1c.6-.1 1.3-.2 2.3-.2 1.1 0 1.7.2 2.1.4.3.3.6.7.6 1.3 0 .7-.5 1.2-1.3 1.4v.1c.6.2.9.7 1.1 1.5.2.9.3 1.3.4 1.5H296c-.2-.2-.3-.8-.5-1.5-.1-.7-.5-1-1.3-1h-.7v2.6h.1zm0-3.5h.7c.8 0 1.4-.3 1.4-.9 0-.6-.4-.9-1.3-.9-.4 0-.6 0-.8.1v1.7z"/></svg>
